<svg xmlns="http://www.w3.org/2000/svg" viewBox="0 0 1200 700" role="img" aria-labelledby="title desc">
  <title id="title">My Sage Dental</title>
  <desc id="desc">Dental clinic website thumbnail with calm medical colors and appointment interface cards.</desc>
  <rect width="1200" height="700" fill="#ecfeff"/>
  <rect x="120" y="95" width="960" height="510" rx="38" fill="#ffffff"/>
  <rect x="175" y="160" width="400" height="360" rx="32" fill="#ccfbf1"/>
  <rect x="635" y="160" width="320" height="80" rx="20" fill="#e0f2fe"/>
  <rect x="635" y="280" width="320" height="80" rx="20" fill="#cffafe"/>
  <rect x="635" y="400" width="320" height="80" rx="20" fill="#d1fae5"/>
  <path d="M330 220 C250 220 260 350 315 465 C335 505 370 505 390 465 C445 350 430 220 350 220 C343 220 337 224 330 230 C323 224 337 220 330 220Z" fill="#ffffff" stroke="#0f766e" stroke-width="16" stroke-linejoin="round"/>
  <g fill="#0f766e">
    <rect x="685" y="192" width="150" height="16" rx="8"/>
    <rect x="685" y="312" width="190" height="16" rx="8"/>
    <rect x="685" y="432" width="165" height="16" rx="8"/>
  </g>
  <circle cx="990" cy="195" r="42" fill="#14b8a6"/>
</svg>
