<svg xmlns="http://www.w3.org/2000/svg" viewBox="0 0 1200 700" role="img" aria-labelledby="title desc">
  <title id="title">Developer Portfolio CMS</title>
  <desc id="desc">Portfolio CMS thumbnail with code editor and admin cards.</desc>
  <defs>
    <linearGradient id="bg" x1="0" x2="1" y1="0" y2="1">
      <stop offset="0" stop-color="#f0fdfa"/>
      <stop offset=".5" stop-color="#dbeafe"/>
      <stop offset="1" stop-color="#f8fafc"/>
    </linearGradient>
  </defs>
  <rect width="1200" height="700" fill="url(#bg)"/>
  <rect x="110" y="90" width="980" height="520" rx="32" fill="#0f172a"/>
  <rect x="150" y="135" width="320" height="430" rx="22" fill="#111827"/>
  <rect x="510" y="135" width="540" height="140" rx="22" fill="#ecfeff"/>
  <rect x="510" y="315" width="250" height="250" rx="22" fill="#ccfbf1"/>
  <rect x="800" y="315" width="250" height="250" rx="22" fill="#e0f2fe"/>
  <g fill="none" stroke-linecap="round" stroke-width="16">
    <path d="M210 245 L175 280 L210 315" stroke="#67e8f9"/>
    <path d="M360 245 L395 280 L360 315" stroke="#67e8f9"/>
    <path d="M315 220 L255 345" stroke="#5eead4"/>
  </g>
  <g fill="#0f172a" opacity=".8">
    <rect x="560" y="178" width="210" height="18" rx="9"/>
    <rect x="560" y="218" width="350" height="14" rx="7"/>
    <rect x="555" y="370" width="145" height="16" rx="8"/>
    <rect x="845" y="370" width="145" height="16" rx="8"/>
  </g>
  <circle cx="980" cy="205" r="44" fill="#14b8a6"/>
</svg>
