<svg xmlns="http://www.w3.org/2000/svg" viewBox="0 0 1200 700" role="img" aria-labelledby="title desc">
  <title id="title">SaaS Analytics Dashboard</title>
  <desc id="desc">Dashboard thumbnail with charts, cards, and analytics panels.</desc>
  <defs>
    <linearGradient id="bg" x1="0" x2="1" y1="0" y2="1">
      <stop offset="0" stop-color="#e0f2fe"/>
      <stop offset=".55" stop-color="#ccfbf1"/>
      <stop offset="1" stop-color="#f8fafc"/>
    </linearGradient>
    <linearGradient id="panel" x1="0" x2="1">
      <stop offset="0" stop-color="#0f172a"/>
      <stop offset="1" stop-color="#155e75"/>
    </linearGradient>
  </defs>
  <rect width="1200" height="700" fill="url(#bg)"/>
  <rect x="90" y="80" width="1020" height="540" rx="34" fill="#ffffff" opacity=".82"/>
  <rect x="130" y="130" width="230" height="420" rx="24" fill="url(#panel)"/>
  <rect x="400" y="130" width="250" height="130" rx="22" fill="#14b8a6" opacity=".9"/>
  <rect x="690" y="130" width="380" height="130" rx="22" fill="#38bdf8" opacity=".82"/>
  <rect x="400" y="300" width="670" height="250" rx="26" fill="#f8fafc"/>
  <path d="M450 500 C520 390 590 450 655 350 C735 230 820 420 900 320 C955 250 1005 280 1040 235" fill="none" stroke="#0f766e" stroke-width="18" stroke-linecap="round"/>
  <g fill="#0f172a" opacity=".8">
    <rect x="170" y="175" width="145" height="18" rx="9"/>
    <rect x="170" y="235" width="110" height="14" rx="7"/>
    <rect x="170" y="280" width="150" height="14" rx="7"/>
    <rect x="170" y="325" width="125" height="14" rx="7"/>
  </g>
  <g fill="#14b8a6">
    <circle cx="480" cy="195" r="30"/>
    <rect x="530" y="174" width="80" height="16" rx="8"/>
    <rect x="530" y="204" width="56" height="12" rx="6"/>
  </g>
</svg>
