<svg xmlns="http://www.w3.org/2000/svg" viewBox="0 0 1200 700" role="img" aria-labelledby="title desc">
  <title id="title">Shaadi Souk</title>
  <desc id="desc">Wedding website thumbnail with elegant cards and warm accents.</desc>
  <rect width="1200" height="700" fill="#fff7ed"/>
  <circle cx="960" cy="120" r="210" fill="#fed7aa"/>
  <circle cx="210" cy="580" r="190" fill="#fee2e2"/>
  <rect x="130" y="105" width="940" height="490" rx="34" fill="#ffffff" opacity=".88"/>
  <rect x="190" y="170" width="380" height="350" rx="28" fill="#9f1239"/>
  <rect x="625" y="170" width="350" height="80" rx="20" fill="#fff7ed"/>
  <rect x="625" y="285" width="350" height="80" rx="20" fill="#ffedd5"/>
  <rect x="625" y="400" width="350" height="80" rx="20" fill="#fee2e2"/>
  <path d="M295 365 C330 290 425 290 460 365 C428 438 328 438 295 365Z" fill="#fecaca"/>
  <circle cx="345" cy="325" r="45" fill="#fff1f2"/>
  <circle cx="415" cy="325" r="45" fill="#fff1f2"/>
  <g fill="#881337">
    <rect x="675" y="198" width="160" height="16" rx="8"/>
    <rect x="675" y="315" width="210" height="16" rx="8"/>
    <rect x="675" y="430" width="190" height="16" rx="8"/>
  </g>
</svg>
