<svg xmlns="http://www.w3.org/2000/svg" viewBox="0 0 1200 700" role="img" aria-labelledby="title desc">
  <title id="title">TeckValley India</title>
  <desc id="desc">Technology company website thumbnail with service blocks and animated style lines.</desc>
  <rect width="1200" height="700" fill="#f0fdfa"/>
  <rect x="90" y="95" width="1020" height="510" rx="36" fill="#082f49"/>
  <path d="M145 465 C280 280 390 515 530 330 C690 120 800 430 1055 210" fill="none" stroke="#22d3ee" stroke-width="18" stroke-linecap="round" opacity=".85"/>
  <rect x="160" y="165" width="270" height="150" rx="24" fill="#ecfeff"/>
  <rect x="465" y="165" width="270" height="150" rx="24" fill="#ccfbf1"/>
  <rect x="770" y="165" width="270" height="150" rx="24" fill="#bae6fd"/>
  <g fill="#0f172a">
    <rect x="205" y="215" width="150" height="18" rx="9"/>
    <rect x="510" y="215" width="155" height="18" rx="9"/>
    <rect x="815" y="215" width="150" height="18" rx="9"/>
  </g>
  <circle cx="250" cy="445" r="55" fill="#14b8a6"/>
  <circle cx="600" cy="465" r="55" fill="#38bdf8"/>
  <circle cx="940" cy="445" r="55" fill="#a7f3d0"/>
</svg>
